# xmcd CD database file
#
# Track frame offsets:
#	150
#	24245
#	62772
#	94320
#	129192
#	159565
#	192220
#	226790
#
# Disc length: 3360 seconds
#
# Revision: 0
# Processed by: cddbd v1.5.2PL0 Copyright (c) Steve Scherf et al.
# Submitted via: CDex 1.70beta1
#
DISCID=590d1e08
DTITLE=Michael Brecker - Two Blocks From The Edge
DYEAR=1998
DGENRE=Jazz
TTITLE0=(01 - Madame Toulouse
TTITLE1=(02 - Two Blocks From The Edge
TTITLE2=(03 - Bye George
TTITLE3=(04) El Ni - o
TTITLE4=(05 - Cat's Cradle
TTITLE5=(06 - The Impaler
TTITLE6=(07 - How Long 'Til the Sun
TTITLE7=(08 - Delta City Blues
EXTD=YEAR: 1998
EXTT0=
EXTT1=
EXTT2=
EXTT3=
EXTT4=
EXTT5=
EXTT6=
EXTT7=
PLAYORDER=
